<?xml version="1.0" encoding="UTF-8" standalone="no"?>
<!DOCTYPE svg PUBLIC "-//W3C//DTD SVG 1.1//EN" "http://www.w3.org/Graphics/SVG/1.1/DTD/svg11.dtd">
<svg width="100%" height="100%" viewBox="0 0 1122 847" version="1.1" xmlns="http://www.w3.org/2000/svg" xmlnsXlink="http://www.w3.org/1999/xlink" xmlSpace="preserve" xmlnsserif="http://www.serif.com/" style="fill-rule:evenodd;clip-rule:evenodd;stroke-miterlimit:2.6131;">
    <g transform="matrix(0.133333,0,0,-0.133333,-1102,2094)">
        <g id="ink_ext_XXXXXX">
            <g id="g12">
                <rect id="path16" x="2.5" y="2.5" width="25000" height="25000" style="fill:none;fill-rule:nonzero;stroke:black;stroke-width:5px;"/>
                <path id="path18" d="M14666,14815.5C14878.9,14762.7 15094.3,14892.2 15147.3,15105.1C15200.3,15317.9 15070.6,15533.3 14858,15586.2C14645.1,15639.1 14429.7,15509.6 14376.8,15296.8C14323.8,15084.1 14453.4,14868.6 14666,14815.5ZM10610.2,9458.4C10600.6,9433.9 10586,9421.7 10566.3,9421.7C10546.6,9421.7 10531.9,9433.9 10522,9458.4L8394.79,14523.3L9800.84,14523.3L10749.3,12175L11810.1,14619C11829.4,14668.1 11848.9,14668.1 11868.9,14619L13009.4,12175C13203.7,12695.2 13367.7,13124.4 13586.2,13638.9C13686.9,13878.3 13804.3,14236.8 14018.8,14381.2C14449.5,14671.2 15182.5,14185.6 15500.1,14991.7C15526.4,15058 15553.1,15109.4 15580.2,15148.8C15620.6,15230.6 15682.3,15303.2 15763.3,15357.7C16012.3,15525.2 16350,15459.3 16517.5,15210.4C16685.1,14961.4 16619.2,14623.7 16370.2,14456.2C16244.1,14371.2 16095.2,14346.2 15957.2,14374.7C15943.8,14374.3 15930.1,14374.1 15915.8,14374.3C15348.2,14380 15116.3,14046.2 14936.3,13632.6C14331.8,12243.3 13764.1,10892.1 13186.9,9458.4C13162.7,9389.8 13133.4,9389.8 13098.5,9458.4L11831.6,12145.5L10610.2,9458.4"/>
            </g>
        </g>
    </g>
</svg>
