<svg xmlns="http://www.w3.org/2000/svg" width="21.613" height="18.913" viewBox="0 0 21.613 18.913">
  <path id="Logo" d="M3.1,18.518l-2.7-2.7a1.351,1.351,0,0,1,1.911-1.911l1.745,1.746L8.5,11.2a1.353,1.353,0,0,1,1.913,1.913l-5.4,5.4a1.355,1.355,0,0,1-1.911,0Zm11.762-2.308a1.351,1.351,0,1,1,0-2.7h5.4a1.351,1.351,0,1,1,0,2.7ZM3.1,7.708l-2.7-2.7A1.351,1.351,0,1,1,2.306,3.1L4.051,4.844,8.5.394a1.352,1.352,0,0,1,1.913,1.912l-5.4,5.4a1.355,1.355,0,0,1-.957.4A1.336,1.336,0,0,1,3.1,7.708ZM14.859,5.4a1.351,1.351,0,0,1,0-2.7h5.4a1.351,1.351,0,0,1,0,2.7Z" fill="#ffc200"/>
</svg>
