<svg id="Group_3" data-name="Group 3" xmlns="http://www.w3.org/2000/svg" width="40" height="40" viewBox="0 0 40 40">
  <circle id="Oval" cx="20" cy="20" r="20" fill="#e3efff"/>
  <path id="Icon" d="M9.645,13.5H2.354A2.136,2.136,0,0,1,0,11.615V6.524A1.977,1.977,0,0,1,1.766,4.7,1.905,1.905,0,0,0,2.32,5.866l.3.3H2.354c-.534,0-.828.266-.828.355v5.09c0,.088.294.356.828.356H9.646c.534,0,.828-.267.828-.356V6.524c0-.088-.294-.355-.828-.355H9.417l.3-.3a1.908,1.908,0,0,0,.553-1.16A1.972,1.972,0,0,1,12,6.524v5.09A2.136,2.136,0,0,1,9.645,13.5ZM6.026,7.621H6.014a.772.772,0,0,1-.552-.229L3.129,5.054a.75.75,0,0,1-.09-.111c-.007-.01-.014-.021-.02-.032L3.014,4.9c-.015-.025-.028-.051-.041-.079s-.015-.035-.022-.053a.6.6,0,0,1-.023-.078l0-.017a.269.269,0,0,1-.009-.037.78.78,0,0,1,1.319-.691l.978.98V.783a.781.781,0,1,1,1.562,0v4.2L7.8,3.947a.78.78,0,0,1,1.105,0,.787.787,0,0,1,.216.692c0,.014-.006.027-.01.039l0,.013a.827.827,0,0,1-.024.08c-.006.017-.014.034-.022.052a.612.612,0,0,1-.042.079l-.008.014A.3.3,0,0,1,9,4.943a.754.754,0,0,1-.091.111L6.577,7.393A.772.772,0,0,1,6.026,7.621Z" transform="translate(14 13)" fill="#2a2c30"/>
</svg>
